{
  "accessors": [
    {
      "bufferView": 2,
      "componentType": 5126,
      "count": 65532,
      "max": [
        115.62325286865234,
        111.752197265625,
        63.857398986816406
      ],
      "min": [
        -115.63385772705078,
        -111.73141479492188,
        11.1787109375
      ],
      "type": "VEC3"
    },
    {
      "bufferView": 2,
      "byteOffset": 786384,
      "componentType": 5126,
      "count": 65532,
      "max": [
        0.9999926686286926,
        0.9999967813491821,
        1.0
      ],
      "min": [
        -0.9999992251396179,
        -0.999984860420227,
        -0.9999511241912842
      ],
      "type": "VEC3"
    },
    {
      "bufferView": 1,
      "componentType": 5126,
      "count": 65532,
      "max": [
        0.999692976474762,
        0.4280740022659302
      ],
      "min": [
        0.00024399999529123306,
        0.000307999987853691
      ],
      "type": "VEC2"
    },
    {
      "bufferView": 0,
      "componentType": 5125,
      "count": 275487,
      "type": "SCALAR"
    },
    {
      "bufferView": 2,
      "byteOffset": 1572768,
      "componentType": 5126,
      "count": 65532,
      "max": [
        55.54484558105469,
        95.51869201660156,
        90.8159408569336
      ],
      "min": [
        -89.27423858642578,
        -64.52511596679688,
        13.065216064453125
      ],
      "type": "VEC3"
    },
    {
      "bufferView": 2,
      "byteOffset": 2359152,
      "componentType": 5126,
      "count": 65532,
      "max": [
        0.9999995827674866,
        0.9999951124191284,
        1.0
      ],
      "min": [
        -0.9999996423721313,
        -0.9999993443489075,
        -0.9999949932098389
      ],
      "type": "VEC3"
    },
    {
      "bufferView": 1,
      "byteOffset": 524256,
      "componentType": 5126,
      "count": 65532,
      "max": [
        0.9996880292892456,
        0.42651399970054626
      ],
      "min": [
        0.00024399999529123306,
        0.2258470058441162
      ],
      "type": "VEC2"
    },
    {
      "bufferView": 0,
      "byteOffset": 1101948,
      "componentType": 5125,
      "count": 247041,
      "type": "SCALAR"
    },
    {
      "bufferView": 2,
      "byteOffset": 3145536,
      "componentType": 5126,
      "count": 65532,
      "max": [
        52.080501556396484,
        58.54225540161133,
        77.31228637695313
      ],
      "min": [
        -89.26809692382813,
        -64.85909271240234,
        13.698455810546875
      ],
      "type": "VEC3"
    },
    {
      "bufferView": 2,
      "byteOffset": 3931920,
      "componentType": 5126,
      "count": 65532,
      "max": [
        0.9999992251396179,
        0.9999988675117493,
        1.0
      ],
      "min": [
        -1.0,
        -0.9999970197677612,
        -0.9999961256980896
      ],
      "type": "VEC3"
    },
    {
      "bufferView": 1,
      "byteOffset": 1048512,
      "componentType": 5126,
      "count": 65532,
      "max": [
        0.9996160268783569,
        0.37573200464248657
      ],
      "min": [
        0.00024399999529123306,
        0.19947899878025055
      ],
      "type": "VEC2"
    },
    {
      "bufferView": 0,
      "byteOffset": 2090112,
      "componentType": 5125,
      "count": 220236,
      "type": "SCALAR"
    },
    {
      "bufferView": 2,
      "byteOffset": 4718304,
      "componentType": 5126,
      "count": 65532,
      "max": [
        115.62541961669922,
        111.70305633544922,
        91.17310333251953
      ],
      "min": [
        -115.60736846923828,
        -111.70305633544922,
        13.58842945098877
      ],
      "type": "VEC3"
    },
    {
      "bufferView": 2,
      "byteOffset": 5504688,
      "componentType": 5126,
      "count": 65532,
      "max": [
        0.9999998807907104,
        0.9999997615814209,
        1.0
      ],
      "min": [
        -0.9999998807907104,
        -0.9999938607215881,
        -0.9999727606773376
      ],
      "type": "VEC3"
    },
    {
      "bufferView": 1,
      "byteOffset": 1572768,
      "componentType": 5126,
      "count": 65532,
      "max": [
        0.9997559785842896,
        0.4284670054912567
      ],
      "min": [
        0.00024399999529123306,
        0.0010809999657794833
      ],
      "type": "VEC2"
    },
    {
      "bufferView": 0,
      "byteOffset": 2971056,
      "componentType": 5125,
      "count": 225525,
      "type": "SCALAR"
    },
    {
      "bufferView": 2,
      "byteOffset": 6291072,
      "componentType": 5126,
      "count": 65532,
      "max": [
        62.67589569091797,
        60.82445526123047,
        91.532958984375
      ],
      "min": [
        -67.29520416259766,
        -104.69268798828125,
        13.605911254882813
      ],
      "type": "VEC3"
    },
    {
      "bufferView": 2,
      "byteOffset": 7077456,
      "componentType": 5126,
      "count": 65532,
      "max": [
        0.9999998807907104,
        0.9999980926513672,
        1.0
      ],
      "min": [
        -0.9999997615814209,
        -0.9999986290931702,
        -0.9999966621398926
      ],
      "type": "VEC3"
    },
    {
      "bufferView": 1,
      "byteOffset": 2097024,
      "componentType": 5126,
      "count": 65532,
      "max": [
        0.9997169971466064,
        0.3483999967575073
      ],
      "min": [
        0.00024399999529123306,
        0.15387900173664093
      ],
      "type": "VEC2"
    },
    {
      "bufferView": 0,
      "byteOffset": 3873156,
      "componentType": 5125,
      "count": 218028,
      "type": "SCALAR"
    },
    {
      "bufferView": 2,
      "byteOffset": 7863840,
      "componentType": 5126,
      "count": 65534,
      "max": [
        115.60736846923828,
        111.70305633544922,
        65.8720474243164
      ],
      "min": [
        -115.60877227783203,
        -111.71318054199219,
        13.621002197265625
      ],
      "type": "VEC3"
    },
    {
      "bufferView": 2,
      "byteOffset": 8650248,
      "componentType": 5126,
      "count": 65534,
      "max": [
        0.9999983310699463,
        0.9999979734420776,
        1.0
      ],
      "min": [
        -0.9999998807907104,
        -0.9999964833259583,
        -0.9999332427978516
      ],
      "type": "VEC3"
    },
    {
      "bufferView": 1,
      "byteOffset": 2621280,
      "componentType": 5126,
      "count": 65534,
      "max": [
        0.999737024307251,
        0.4274809956550598
      ],
      "min": [
        0.00024399999529123306,
        0.0005050000036135316
      ],
      "type": "VEC2"
    },
    {
      "bufferView": 0,
      "byteOffset": 4745268,
      "componentType": 5125,
      "count": 218394,
      "type": "SCALAR"
    },
    {
      "bufferView": 2,
      "byteOffset": 9436656,
      "componentType": 5126,
      "count": 65532,
      "max": [
        106.32112884521484,
        111.70587921142578,
        56.89558410644531
      ],
      "min": [
        -115.45995330810547,
        -111.70793151855469,
        8.89501953125
      ],
      "type": "VEC3"
    },
    {
      "bufferView": 2,
      "byteOffset": 10223040,
      "componentType": 5126,
      "count": 65532,
      "max": [
        0.9999784827232361,
        0.9999998807907104,
        1.0
      ],
      "min": [
        -0.9999978542327881,
        -0.999995768070221,
        -0.9999584555625916
      ],
      "type": "VEC3"
    },
    {
      "bufferView": 1,
      "byteOffset": 3145552,
      "componentType": 5126,
      "count": 65532,
      "max": [
        0.9997379779815674,
        0.4046649932861328
      ],
      "min": [
        0.00024399999529123306,
        0.0472790002822876
      ],
      "type": "VEC2"
    },
    {
      "bufferView": 0,
      "byteOffset": 5618844,
      "componentType": 5125,
      "count": 220959,
      "type": "SCALAR"
    },
    {
      "bufferView": 2,
      "byteOffset": 11009424,
      "componentType": 5126,
      "count": 65532,
      "max": [
        115.60736846923828,
        111.71546173095703,
        58.563201904296875
      ],
      "min": [
        -115.6131820678711,
        -82.20475769042969,
        12.967666625976563
      ],
      "type": "VEC3"
    },
    {
      "bufferView": 2,
      "byteOffset": 11795808,
      "componentType": 5126,
      "count": 65532,
      "max": [
        0.9999963641166687,
        1.0,
        0.9999998807907104
      ],
      "min": [
        -0.9999980926513672,
        -0.9999953508377075,
        -0.9999514818191528
      ],
      "type": "VEC3"
    },
    {
      "bufferView": 1,
      "byteOffset": 3669808,
      "componentType": 5126,
      "count": 65532,
      "max": [
        0.9997529983520508,
        0.41479501128196716
      ],
      "min": [
        0.00024399999529123306,
        0.0016240000259131193
      ],
      "type": "VEC2"
    },
    {
      "bufferView": 0,
      "byteOffset": 6502680,
      "componentType": 5125,
      "count": 199485,
      "type": "SCALAR"
    },
    {
      "bufferView": 2,
      "byteOffset": 12582192,
      "componentType": 5126,
      "count": 65532,
      "max": [
        115.6164321899414,
        109.22036743164063,
        60.42643737792969
      ],
      "min": [
        -115.60736846923828,
        -111.70305633544922,
        7.996245861053467
      ],
      "type": "VEC3"
    },
    {
      "bufferView": 2,
      "byteOffset": 13368576,
      "componentType": 5126,
      "count": 65532,
      "max": [
        0.9999954700469971,
        0.9999979734420776,
        1.0
      ],
      "min": [
        -0.9999942183494568,
        -0.999982476234436,
        -0.9996201395988464
      ],
      "type": "VEC3"
    },
    {
      "bufferView": 1,
      "byteOffset": 4194064,
      "componentType": 5126,
      "count": 65532,
      "max": [
        0.9997109770774841,
        0.4278550148010254
      ],
      "min": [
        0.00024399999529123306,
        0.0002479999966453761
      ],
      "type": "VEC2"
    },
    {
      "bufferView": 0,
      "byteOffset": 7300620,
      "componentType": 5125,
      "count": 203685,
      "type": "SCALAR"
    },
    {
      "bufferView": 2,
      "byteOffset": 14154960,
      "componentType": 5126,
      "count": 65532,
      "max": [
        115.60736846923828,
        111.66465759277344,
        91.12145233154297
      ],
      "min": [
        -115.5839614868164,
        -111.70305633544922,
        12.318161010742188
      ],
      "type": "VEC3"
    },
    {
      "bufferView": 2,
      "byteOffset": 14941344,
      "componentType": 5126,
      "count": 65532,
      "max": [
        0.9999995827674866,
        0.9999998807907104,
        1.0
      ],
      "min": [
        -0.9999998807907104,
        -0.9999988675117493,
        -0.9999905228614807
      ],
      "type": "VEC3"
    },
    {
      "bufferView": 1,
      "byteOffset": 4718320,
      "componentType": 5126,
      "count": 65532,
      "max": [
        0.9996650218963623,
        0.4230239987373352
      ],
      "min": [
        0.00024399999529123306,
        0.0002469999890308827
      ],
      "type": "VEC2"
    },
    {
      "bufferView": 0,
      "byteOffset": 8115360,
      "componentType": 5125,
      "count": 213663,
      "type": "SCALAR"
    },
    {
      "bufferView": 2,
      "byteOffset": 15727728,
      "componentType": 5126,
      "count": 65532,
      "max": [
        115.61349487304688,
        111.45166778564453,
        91.12145233154297
      ],
      "min": [
        -115.60736846923828,
        -111.70305633544922,
        7.491486072540283
      ],
      "type": "VEC3"
    },
    {
      "bufferView": 2,
      "byteOffset": 16514112,
      "componentType": 5126,
      "count": 65532,
      "max": [
        0.9999996423721313,
        0.9999991059303284,
        1.0
      ],
      "min": [
        -0.9999974966049194,
        -0.999995231628418,
        -0.9999902248382568
      ],
      "type": "VEC3"
    },
    {
      "bufferView": 1,
      "byteOffset": 5242576,
      "componentType": 5126,
      "count": 65532,
      "max": [
        0.9997109770774841,
        0.4066370129585266
      ],
      "min": [
        0.00024399999529123306,
        0.00417400011792779
      ],
      "type": "VEC2"
    },
    {
      "bufferView": 0,
      "byteOffset": 8970012,
      "componentType": 5125,
      "count": 237036,
      "type": "SCALAR"
    },
    {
      "bufferView": 2,
      "byteOffset": 17300496,
      "componentType": 5126,
      "count": 65532,
      "max": [
        106.02976989746094,
        108.51913452148438,
        91.4925537109375
      ],
      "min": [
        -115.60736846923828,
        -103.50674438476563,
        6.064362049102783
      ],
      "type": "VEC3"
    },
    {
      "bufferView": 2,
      "byteOffset": 18086880,
      "componentType": 5126,
      "count": 65532,
      "max": [
        0.9999998807907104,
        0.9999966025352478,
        1.0
      ],
      "min": [
        -0.9999974966049194,
        -0.9999776482582092,
        -0.9999053478240967
      ],
      "type": "VEC3"
    },
    {
      "bufferView": 1,
      "byteOffset": 5766832,
      "componentType": 5126,
      "count": 65532,
      "max": [
        0.99965900182724,
        0.40293699502944946
      ],
      "min": [
        0.00024399999529123306,
        0.06769800186157227
      ],
      "type": "VEC2"
    },
    {
      "bufferView": 0,
      "byteOffset": 9918156,
      "componentType": 5125,
      "count": 211911,
      "type": "SCALAR"
    },
    {
      "bufferView": 2,
      "byteOffset": 18873264,
      "componentType": 5126,
      "count": 65533,
      "max": [
        106.11491394042969,
        58.139156341552734,
        91.59729766845703
      ],
      "min": [
        -25.619169235229492,
        -100.5848388671875,
        6.52239990234375
      ],
      "type": "VEC3"
    },
    {
      "bufferView": 2,
      "byteOffset": 19659660,
      "componentType": 5126,
      "count": 65533,
      "max": [
        0.9999986290931702,
        0.9999971389770508,
        1.0
      ],
      "min": [
        -0.9999991059303284,
        -0.9999938607215881,
        -0.9999741315841675
      ],
      "type": "VEC3"
    },
    {
      "bufferView": 1,
      "byteOffset": 6291088,
      "componentType": 5126,
      "count": 65533,
      "max": [
        0.9997000098228455,
        0.2243649959564209
      ],
      "min": [
        0.00024399999529123306,
        0.09399600327014923
      ],
      "type": "VEC2"
    },
    {
      "bufferView": 0,
      "byteOffset": 10765800,
      "componentType": 5125,
      "count": 222090,
      "type": "SCALAR"
    },
    {
      "bufferView": 2,
      "byteOffset": 20446056,
      "componentType": 5126,
      "count": 11883,
      "max": [
        -8.606086730957031,
        58.03643798828125,
        91.04563903808594
      ],
      "min": [
        -69.14783477783203,
        -102.1419448852539,
        12.715789794921875
      ],
      "type": "VEC3"
    },
    {
      "bufferView": 2,
      "byteOffset": 20588652,
      "componentType": 5126,
      "count": 11883,
      "max": [
        0.9999889731407166,
        0.9999873638153076,
        0.9999988675117493
      ],
      "min": [
        -0.9999427795410156,
        -0.9999813437461853,
        -0.9999269843101501
      ],
      "type": "VEC3"
    },
    {
      "bufferView": 1,
      "byteOffset": 6815352,
      "componentType": 5126,
      "count": 11883,
      "max": [
        0.9995200037956238,
        0.22338899970054626
      ],
      "min": [
        0.00024399999529123306,
        0.10284200310707092
      ],
      "type": "VEC2"
    },
    {
      "bufferView": 0,
      "byteOffset": 11654160,
      "componentType": 5125,
      "count": 27828,
      "type": "SCALAR"
    }
  ],
  "asset": {
    "extras": {
      "author": "Metazeon (https://sketchfab.com/Metazeon)",
      "license": "CC-BY-4.0 (http://creativecommons.org/licenses/by/4.0/)",
      "source": "https://sketchfab.com/3d-models/construction-site-building-site-architecture-906a949aa4a84ae0a4c8d41644a467de",
      "title": "Construction site, building site, architecture"
    },
    "generator": "Sketchfab-16.59.0",
    "version": "2.0"
  },
  "bufferViews": [
    {
      "buffer": 0,
      "byteLength": 11765472,
      "name": "floatBufferViews",
      "target": 34963
    },
    {
      "buffer": 0,
      "byteLength": 6910416,
      "byteOffset": 11765472,
      "byteStride": 8,
      "name": "floatBufferViews",
      "target": 34962
    },
    {
      "buffer": 0,
      "byteLength": 20731248,
      "byteOffset": 18675888,
      "byteStride": 12,
      "name": "floatBufferViews",
      "target": 34962
    }
  ],
  "buffers": [
    {
      "byteLength": 39407136,
      "uri": "scene.bin"
    }
  ],
  "extensionsUsed": [
    "KHR_materials_specular"
  ],
  "images": [
    {
      "uri": "textures/20250116_001_RC_LOD0_u0_v0_baseColor.png"
    }
  ],
  "materials": [
    {
      "doubleSided": true,
      "extensions": {
        "KHR_materials_specular": {
          "specularColorFactor": [
            1.0,
            1.0,
            1.0
          ],
          "specularFactor": 0.1
        }
      },
      "name": "20250116_001_RC_LOD0_u0_v0",
      "pbrMetallicRoughness": {
        "baseColorTexture": {
          "index": 0
        },
        "metallicFactor": 0.1,
        "roughnessFactor": 0.9
      }
    }
  ],
  "meshes": [
    {
      "name": "Object_0",
      "primitives": [
        {
          "attributes": {
            "NORMAL": 1,
            "POSITION": 0,
            "TEXCOORD_0": 2
          },
          "indices": 3,
          "material": 0,
          "mode": 4
        }
      ]
    },
    {
      "name": "Object_1",
      "primitives": [
        {
          "attributes": {
            "NORMAL": 5,
            "POSITION": 4,
            "TEXCOORD_0": 6
          },
          "indices": 7,
          "material": 0,
          "mode": 4
        }
      ]
    },
    {
      "name": "Object_2",
      "primitives": [
        {
          "attributes": {
            "NORMAL": 9,
            "POSITION": 8,
            "TEXCOORD_0": 10
          },
          "indices": 11,
          "material": 0,
          "mode": 4
        }
      ]
    },
    {
      "name": "Object_3",
      "primitives": [
        {
          "attributes": {
            "NORMAL": 13,
            "POSITION": 12,
            "TEXCOORD_0": 14
          },
          "indices": 15,
          "material": 0,
          "mode": 4
        }
      ]
    },
    {
      "name": "Object_4",
      "primitives": [
        {
          "attributes": {
            "NORMAL": 17,
            "POSITION": 16,
            "TEXCOORD_0": 18
          },
          "indices": 19,
          "material": 0,
          "mode": 4
        }
      ]
    },
    {
      "name": "Object_5",
      "primitives": [
        {
          "attributes": {
            "NORMAL": 21,
            "POSITION": 20,
            "TEXCOORD_0": 22
          },
          "indices": 23,
          "material": 0,
          "mode": 4
        }
      ]
    },
    {
      "name": "Object_6",
      "primitives": [
        {
          "attributes": {
            "NORMAL": 25,
            "POSITION": 24,
            "TEXCOORD_0": 26
          },
          "indices": 27,
          "material": 0,
          "mode": 4
        }
      ]
    },
    {
      "name": "Object_7",
      "primitives": [
        {
          "attributes": {
            "NORMAL": 29,
            "POSITION": 28,
            "TEXCOORD_0": 30
          },
          "indices": 31,
          "material": 0,
          "mode": 4
        }
      ]
    },
    {
      "name": "Object_8",
      "primitives": [
        {
          "attributes": {
            "NORMAL": 33,
            "POSITION": 32,
            "TEXCOORD_0": 34
          },
          "indices": 35,
          "material": 0,
          "mode": 4
        }
      ]
    },
    {
      "name": "Object_9",
      "primitives": [
        {
          "attributes": {
            "NORMAL": 37,
            "POSITION": 36,
            "TEXCOORD_0": 38
          },
          "indices": 39,
          "material": 0,
          "mode": 4
        }
      ]
    },
    {
      "name": "Object_10",
      "primitives": [
        {
          "attributes": {
            "NORMAL": 41,
            "POSITION": 40,
            "TEXCOORD_0": 42
          },
          "indices": 43,
          "material": 0,
          "mode": 4
        }
      ]
    },
    {
      "name": "Object_11",
      "primitives": [
        {
          "attributes": {
            "NORMAL": 45,
            "POSITION": 44,
            "TEXCOORD_0": 46
          },
          "indices": 47,
          "material": 0,
          "mode": 4
        }
      ]
    },
    {
      "name": "Object_12",
      "primitives": [
        {
          "attributes": {
            "NORMAL": 49,
            "POSITION": 48,
            "TEXCOORD_0": 50
          },
          "indices": 51,
          "material": 0,
          "mode": 4
        }
      ]
    },
    {
      "name": "Object_13",
      "primitives": [
        {
          "attributes": {
            "NORMAL": 53,
            "POSITION": 52,
            "TEXCOORD_0": 54
          },
          "indices": 55,
          "material": 0,
          "mode": 4
        }
      ]
    }
  ],
  "nodes": [
    {
      "children": [
        1
      ],
      "matrix": [
        1.0,
        0.0,
        0.0,
        0.0,
        0.0,
        2.220446049250313e-16,
        -1.0,
        0.0,
        0.0,
        1.0,
        2.220446049250313e-16,
        0.0,
        0.0,
        0.0,
        0.0,
        1.0
      ],
      "name": "Sketchfab_model"
    },
    {
      "children": [
        2,
        3,
        4,
        5,
        6,
        7,
        8,
        9,
        10,
        11,
        12,
        13,
        14,
        15
      ],
      "name": "20250116_001_RC_LOD0.obj.cleaner.materialmerger.gles"
    },
    {
      "mesh": 0,
      "name": "Object_2"
    },
    {
      "mesh": 1,
      "name": "Object_3"
    },
    {
      "mesh": 2,
      "name": "Object_4"
    },
    {
      "mesh": 3,
      "name": "Object_5"
    },
    {
      "mesh": 4,
      "name": "Object_6"
    },
    {
      "mesh": 5,
      "name": "Object_7"
    },
    {
      "mesh": 6,
      "name": "Object_8"
    },
    {
      "mesh": 7,
      "name": "Object_9"
    },
    {
      "mesh": 8,
      "name": "Object_10"
    },
    {
      "mesh": 9,
      "name": "Object_11"
    },
    {
      "mesh": 10,
      "name": "Object_12"
    },
    {
      "mesh": 11,
      "name": "Object_13"
    },
    {
      "mesh": 12,
      "name": "Object_14"
    },
    {
      "mesh": 13,
      "name": "Object_15"
    }
  ],
  "samplers": [
    {
      "magFilter": 9729,
      "minFilter": 9987,
      "wrapS": 10497,
      "wrapT": 10497
    }
  ],
  "scene": 0,
  "scenes": [
    {
      "name": "Sketchfab_Scene",
      "nodes": [
        0
      ]
    }
  ],
  "textures": [
    {
      "sampler": 0,
      "source": 0
    }
  ]
}
