{
  "accessors": [
    {
      "bufferView": 2,
      "componentType": 5126,
      "count": 12725,
      "max": [
        11.020308494567871,
        13.724984169006348,
        16.495519638061523
      ],
      "min": [
        -11.470308303833008,
        -13.874983787536621,
        -17.205520629882813
      ],
      "type": "VEC3"
    },
    {
      "bufferView": 2,
      "byteOffset": 152700,
      "componentType": 5126,
      "count": 12725,
      "max": [
        1.0,
        1.0,
        1.0
      ],
      "min": [
        -1.0,
        -1.0,
        -1.0
      ],
      "type": "VEC3"
    },
    {
      "bufferView": 3,
      "componentType": 5126,
      "count": 12725,
      "max": [
        1.0,
        1.0,
        1.0,
        1.0
      ],
      "min": [
        -1.0,
        -1.0,
        -1.0,
        -1.0
      ],
      "type": "VEC4"
    },
    {
      "bufferView": 1,
      "componentType": 5126,
      "count": 12725,
      "max": [
        0.9990253448486328,
        0.9995021224021912
      ],
      "min": [
        0.00048784277169033885,
        0.0009746551513671875
      ],
      "type": "VEC2"
    },
    {
      "bufferView": 0,
      "componentType": 5125,
      "count": 37314,
      "type": "SCALAR"
    },
    {
      "bufferView": 2,
      "byteOffset": 305400,
      "componentType": 5126,
      "count": 2164,
      "max": [
        8.398075103759766,
        8.353979110717773,
        6.412499904632568
      ],
      "min": [
        -8.335713386535645,
        -8.328147888183594,
        4.252449035644531
      ],
      "type": "VEC3"
    },
    {
      "bufferView": 2,
      "byteOffset": 331368,
      "componentType": 5126,
      "count": 2164,
      "max": [
        0.9999985694885254,
        1.0,
        1.0
      ],
      "min": [
        -1.0,
        -1.0,
        -1.0
      ],
      "type": "VEC3"
    },
    {
      "bufferView": 1,
      "byteOffset": 101800,
      "componentType": 5126,
      "count": 2164,
      "max": [
        0.9990253448486328,
        0.9996731281280518
      ],
      "min": [
        0.00032568234018981457,
        0.0009746551513671875
      ],
      "type": "VEC2"
    },
    {
      "bufferView": 0,
      "byteOffset": 149256,
      "componentType": 5125,
      "count": 3264,
      "type": "SCALAR"
    },
    {
      "bufferView": 2,
      "byteOffset": 357336,
      "componentType": 5126,
      "count": 326,
      "max": [
        10.927066802978516,
        10.927066802978516,
        0.4243524372577667
      ],
      "min": [
        -10.927066802978516,
        -10.927066802978516,
        -0.4243524372577667
      ],
      "type": "VEC3"
    },
    {
      "bufferView": 2,
      "byteOffset": 361248,
      "componentType": 5126,
      "count": 326,
      "max": [
        1.0,
        1.0,
        1.0
      ],
      "min": [
        -1.0,
        -1.0,
        -1.0
      ],
      "type": "VEC3"
    },
    {
      "bufferView": 1,
      "byteOffset": 119112,
      "componentType": 5126,
      "count": 326,
      "max": [
        0.9990253448486328,
        0.9996676445007324
      ],
      "min": [
        0.00032557296799495816,
        0.0009746551513671875
      ],
      "type": "VEC2"
    },
    {
      "bufferView": 0,
      "byteOffset": 162312,
      "componentType": 5125,
      "count": 528,
      "type": "SCALAR"
    },
    {
      "bufferView": 2,
      "byteOffset": 365160,
      "componentType": 5126,
      "count": 1431,
      "max": [
        2.0,
        1.9498558044433594,
        9.125317573547363
      ],
      "min": [
        -2.0,
        -1.9498558044433594,
        0.1003173217177391
      ],
      "type": "VEC3"
    },
    {
      "bufferView": 2,
      "byteOffset": 382332,
      "componentType": 5126,
      "count": 1431,
      "max": [
        1.0,
        1.0,
        1.0
      ],
      "min": [
        -1.0,
        -1.0,
        -1.0
      ],
      "type": "VEC3"
    },
    {
      "bufferView": 1,
      "byteOffset": 121720,
      "componentType": 5126,
      "count": 1431,
      "max": [
        0.9990253448486328,
        0.9994786977767944
      ],
      "min": [
        0.0004931304138153791,
        0.0009746551513671875
      ],
      "type": "VEC2"
    },
    {
      "bufferView": 0,
      "byteOffset": 164424,
      "componentType": 5125,
      "count": 2325,
      "type": "SCALAR"
    }
  ],
  "asset": {
    "extras": {
      "author": "Scarecrow_original (https://sketchfab.com/Scarecrow_original)",
      "license": "CC-BY-4.0 (http://creativecommons.org/licenses/by/4.0/)",
      "source": "https://sketchfab.com/3d-models/electric-motor-f1234b63306c44aeb32fbbe0661275f9",
      "title": "Electric Motor"
    },
    "generator": "Sketchfab-12.82.3",
    "version": "2.0"
  },
  "bufferViews": [
    {
      "buffer": 0,
      "byteLength": 173724,
      "name": "floatBufferViews",
      "target": 34963
    },
    {
      "buffer": 0,
      "byteLength": 133168,
      "byteOffset": 173724,
      "byteStride": 8,
      "name": "floatBufferViews",
      "target": 34962
    },
    {
      "buffer": 0,
      "byteLength": 399504,
      "byteOffset": 306892,
      "byteStride": 12,
      "name": "floatBufferViews",
      "target": 34962
    },
    {
      "buffer": 0,
      "byteLength": 203600,
      "byteOffset": 706396,
      "byteStride": 16,
      "name": "floatBufferViews",
      "target": 34962
    }
  ],
  "buffers": [
    {
      "byteLength": 909996,
      "uri": "scene.bin"
    }
  ],
  "extensionsRequired": [
    "KHR_materials_pbrSpecularGlossiness"
  ],
  "extensionsUsed": [
    "KHR_materials_pbrSpecularGlossiness"
  ],
  "images": [
    {
      "uri": "textures/Mat.3_diffuse.png"
    },
    {
      "uri": "textures/Mat.3_specularGlossiness.png"
    },
    {
      "uri": "textures/Mat.3_normal.png"
    }
  ],
  "materials": [
    {
      "doubleSided": true,
      "extensions": {
        "KHR_materials_pbrSpecularGlossiness": {
          "diffuseFactor": [
            0.5,
            0.5,
            0.5,
            1.0
          ],
          "diffuseTexture": {
            "index": 0
          },
          "glossinessFactor": 0.04756828460010884,
          "specularFactor": [
            0.3,
            0.3,
            0.3
          ],
          "specularGlossinessTexture": {
            "index": 1
          }
        }
      },
      "name": "Mat.3",
      "normalTexture": {
        "index": 2
      }
    },
    {
      "doubleSided": true,
      "extensions": {
        "KHR_materials_pbrSpecularGlossiness": {
          "diffuseFactor": [
            0.8,
            0.8,
            0.8,
            1.0
          ],
          "glossinessFactor": 0.04756828460010884,
          "specularFactor": [
            0.0,
            0.0,
            0.0
          ]
        }
      },
      "name": "Mat.2"
    },
    {
      "doubleSided": true,
      "extensions": {
        "KHR_materials_pbrSpecularGlossiness": {
          "diffuseFactor": [
            0.8,
            0.8,
            0.8,
            1.0
          ],
          "glossinessFactor": 0.04756828460010884,
          "specularFactor": [
            0.0,
            0.0,
            0.0
          ]
        }
      },
      "name": "Mat.1"
    },
    {
      "doubleSided": true,
      "extensions": {
        "KHR_materials_pbrSpecularGlossiness": {
          "diffuseFactor": [
            0.053493037353389464,
            0.23058131517271688,
            0.5757194013916181,
            1.0
          ],
          "glossinessFactor": 0.04756828460010884,
          "specularFactor": [
            0.0,
            0.0,
            0.0
          ]
        }
      },
      "name": "material"
    }
  ],
  "meshes": [
    {
      "name": "Body_Mat.3_0",
      "primitives": [
        {
          "attributes": {
            "NORMAL": 1,
            "POSITION": 0,
            "TANGENT": 2,
            "TEXCOORD_0": 3
          },
          "indices": 4,
          "material": 0,
          "mode": 4
        }
      ]
    },
    {
      "name": "Vent_Mat.2_0",
      "primitives": [
        {
          "attributes": {
            "NORMAL": 6,
            "POSITION": 5,
            "TEXCOORD_0": 7
          },
          "indices": 8,
          "material": 1,
          "mode": 4
        }
      ]
    },
    {
      "name": "Bolts_Mat.1_0",
      "primitives": [
        {
          "attributes": {
            "NORMAL": 10,
            "POSITION": 9,
            "TEXCOORD_0": 11
          },
          "indices": 12,
          "material": 2,
          "mode": 4
        }
      ]
    },
    {
      "name": "Shaft_Mat_0",
      "primitives": [
        {
          "attributes": {
            "NORMAL": 14,
            "POSITION": 13,
            "TEXCOORD_0": 15
          },
          "indices": 16,
          "material": 3,
          "mode": 4
        }
      ]
    }
  ],
  "nodes": [
    {
      "children": [
        1
      ],
      "matrix": [
        1.0,
        0.0,
        0.0,
        0.0,
        0.0,
        2.220446049250313e-16,
        -1.0,
        0.0,
        0.0,
        1.0,
        2.220446049250313e-16,
        0.0,
        0.0,
        0.0,
        0.0,
        1.0
      ],
      "name": "Sketchfab_model"
    },
    {
      "children": [
        2
      ],
      "matrix": [
        0.009999999776482582,
        0.0,
        0.0,
        0.0,
        0.0,
        0.0,
        0.009999999776482582,
        0.0,
        0.0,
        -0.009999999776482582,
        0.0,
        0.0,
        0.0,
        0.0,
        0.0,
        1.0
      ],
      "name": "72b9ba28178f4842803c8cb853a17bb2.fbx"
    },
    {
      "children": [
        3,
        5,
        7,
        9
      ],
      "name": "RootNode"
    },
    {
      "children": [
        4
      ],
      "matrix": [
        1.0,
        0.0,
        0.0,
        0.0,
        0.0,
        1.0,
        0.0,
        0.0,
        0.0,
        0.0,
        1.0,
        0.0,
        0.22499999403953552,
        1.3249837160110474,
        -2.544480085372925,
        1.0
      ],
      "name": "Body"
    },
    {
      "mesh": 0,
      "name": "Body_Mat.3_0"
    },
    {
      "children": [
        6
      ],
      "matrix": [
        1.0,
        0.0,
        0.0,
        0.0,
        0.0,
        1.0,
        0.0,
        0.0,
        0.0,
        0.0,
        1.0,
        0.0,
        0.039606355130672455,
        0.0043051885440945625,
        6.360000133514404,
        1.0
      ],
      "name": "Vent"
    },
    {
      "mesh": 1,
      "name": "Vent_Mat.2_0"
    },
    {
      "children": [
        8
      ],
      "matrix": [
        1.0,
        0.0,
        0.0,
        0.0,
        0.0,
        1.0,
        0.0,
        0.0,
        0.0,
        0.0,
        1.0,
        0.0,
        0.0,
        0.0,
        3.5,
        1.0
      ],
      "name": "Bolts"
    },
    {
      "mesh": 2,
      "name": "Bolts_Mat.1_0"
    },
    {
      "children": [
        10
      ],
      "matrix": [
        1.0,
        0.0,
        0.0,
        0.0,
        0.0,
        1.0,
        0.0,
        0.0,
        0.0,
        0.0,
        1.0,
        0.0,
        -5.551115123125783e-17,
        0.0,
        -27.4503173828125,
        1.0
      ],
      "name": "Shaft"
    },
    {
      "mesh": 3,
      "name": "Shaft_Mat_0"
    }
  ],
  "samplers": [
    {
      "magFilter": 9729,
      "minFilter": 9987,
      "wrapS": 10497,
      "wrapT": 10497
    }
  ],
  "scene": 0,
  "scenes": [
    {
      "name": "Sketchfab_Scene",
      "nodes": [
        0
      ]
    }
  ],
  "textures": [
    {
      "sampler": 0,
      "source": 0
    },
    {
      "sampler": 0,
      "source": 1
    },
    {
      "sampler": 0,
      "source": 2
    }
  ]
}
