{
  "accessors": [
    {
      "bufferView": 2,
      "componentType": 5126,
      "count": 65532,
      "max": [
        14.421316146850586,
        4.837408065795898,
        11.588356018066406
      ],
      "min": [
        -7.793084144592285,
        -6.541372299194336,
        0.38239097595214844
      ],
      "type": "VEC3"
    },
    {
      "bufferView": 2,
      "byteOffset": 786384,
      "componentType": 5126,
      "count": 65532,
      "max": [
        0.9999998807907104,
        0.9999987483024597,
        0.999999463558197
      ],
      "min": [
        -0.9999889731407166,
        -0.9999997615814209,
        -0.9999963641166687
      ],
      "type": "VEC3"
    },
    {
      "bufferView": 1,
      "componentType": 5126,
      "count": 65532,
      "max": [
        0.9997519850730896,
        0.9997559785842896
      ],
      "min": [
        0.00024399999529123306,
        0.00025099999038502574
      ],
      "type": "VEC2"
    },
    {
      "bufferView": 0,
      "componentType": 5125,
      "count": 235269,
      "type": "SCALAR"
    },
    {
      "bufferView": 2,
      "byteOffset": 1572768,
      "componentType": 5126,
      "count": 65534,
      "max": [
        13.979549407958984,
        4.788458347320557,
        11.546987533569336
      ],
      "min": [
        -4.505880355834961,
        -5.654958248138428,
        0.3980417251586914
      ],
      "type": "VEC3"
    },
    {
      "bufferView": 2,
      "byteOffset": 2359176,
      "componentType": 5126,
      "count": 65534,
      "max": [
        0.9999980926513672,
        0.9999986886978149,
        0.9999995827674866
      ],
      "min": [
        -0.9999980926513672,
        -0.9999843835830688,
        -0.9999979138374329
      ],
      "type": "VEC3"
    },
    {
      "bufferView": 1,
      "byteOffset": 524256,
      "componentType": 5126,
      "count": 65534,
      "max": [
        0.999754011631012,
        0.9997559785842896
      ],
      "min": [
        0.00024399999529123306,
        0.00025599999935366213
      ],
      "type": "VEC2"
    },
    {
      "bufferView": 0,
      "byteOffset": 941076,
      "componentType": 5125,
      "count": 200268,
      "type": "SCALAR"
    },
    {
      "bufferView": 2,
      "byteOffset": 3145584,
      "componentType": 5126,
      "count": 65532,
      "max": [
        14.443537712097168,
        5.278107643127441,
        11.571371078491211
      ],
      "min": [
        -4.489628791809082,
        -5.691158294677734,
        0.4453134536743164
      ],
      "type": "VEC3"
    },
    {
      "bufferView": 2,
      "byteOffset": 3931968,
      "componentType": 5126,
      "count": 65532,
      "max": [
        0.9999953508377075,
        0.9999980926513672,
        0.9999997615814209
      ],
      "min": [
        -0.9999980926513672,
        -0.9999979138374329,
        -1.0
      ],
      "type": "VEC3"
    },
    {
      "bufferView": 1,
      "byteOffset": 1048528,
      "componentType": 5126,
      "count": 65532,
      "max": [
        0.9997559785842896,
        0.9997559785842896
      ],
      "min": [
        0.00024399999529123306,
        0.0002469999890308827
      ],
      "type": "VEC2"
    },
    {
      "bufferView": 0,
      "byteOffset": 1742148,
      "componentType": 5125,
      "count": 175386,
      "type": "SCALAR"
    },
    {
      "bufferView": 2,
      "byteOffset": 4718352,
      "componentType": 5126,
      "count": 65533,
      "max": [
        9.285262107849121,
        4.839171886444092,
        9.741124153137207
      ],
      "min": [
        -4.57823371887207,
        -7.460910320281982,
        1.5786857604980469
      ],
      "type": "VEC3"
    },
    {
      "bufferView": 2,
      "byteOffset": 5504748,
      "componentType": 5126,
      "count": 65533,
      "max": [
        0.9999898672103882,
        0.9999968409538269,
        0.9999904632568359
      ],
      "min": [
        -0.9999983310699463,
        -0.9999997019767761,
        -0.9999982714653015
      ],
      "type": "VEC3"
    },
    {
      "bufferView": 1,
      "byteOffset": 1572784,
      "componentType": 5126,
      "count": 65533,
      "max": [
        0.9997529983520508,
        0.9997559785842896
      ],
      "min": [
        0.00024399999529123306,
        0.0002479999966453761
      ],
      "type": "VEC2"
    },
    {
      "bufferView": 0,
      "byteOffset": 2443692,
      "componentType": 5125,
      "count": 165837,
      "type": "SCALAR"
    },
    {
      "bufferView": 2,
      "byteOffset": 6291144,
      "componentType": 5126,
      "count": 12271,
      "max": [
        9.173405647277832,
        2.8303561210632324,
        7.622036457061768
      ],
      "min": [
        -4.578462600708008,
        -2.1217150688171387,
        1.5494060516357422
      ],
      "type": "VEC3"
    },
    {
      "bufferView": 2,
      "byteOffset": 6438396,
      "componentType": 5126,
      "count": 12271,
      "max": [
        0.9998950958251953,
        0.9999262690544128,
        0.9999976754188538
      ],
      "min": [
        -0.99981689453125,
        -0.9999030828475952,
        -0.999891996383667
      ],
      "type": "VEC3"
    },
    {
      "bufferView": 1,
      "byteOffset": 2097048,
      "componentType": 5126,
      "count": 12271,
      "max": [
        0.999754011631012,
        0.9997559785842896
      ],
      "min": [
        0.00024399999529123306,
        0.00026599998818710446
      ],
      "type": "VEC2"
    },
    {
      "bufferView": 0,
      "byteOffset": 3107040,
      "componentType": 5125,
      "count": 21786,
      "type": "SCALAR"
    },
    {
      "bufferView": 2,
      "byteOffset": 6585648,
      "componentType": 5126,
      "count": 65533,
      "max": [
        11.42723274230957,
        4.7063727378845215,
        10.144780158996582
      ],
      "min": [
        -7.793084144592285,
        -5.376168251037598,
        0.49712562561035156
      ],
      "type": "VEC3"
    },
    {
      "bufferView": 2,
      "byteOffset": 7372044,
      "componentType": 5126,
      "count": 65533,
      "max": [
        0.9998970031738281,
        0.9999990463256836,
        0.9999959468841553
      ],
      "min": [
        -0.9999880790710449,
        -1.0,
        -0.9999901652336121
      ],
      "type": "VEC3"
    },
    {
      "bufferView": 1,
      "byteOffset": 2195216,
      "componentType": 5126,
      "count": 65533,
      "max": [
        1.999711036682129,
        0.8483890295028687
      ],
      "min": [
        1.0002440214157104,
        0.00025499999173916876
      ],
      "type": "VEC2"
    },
    {
      "bufferView": 0,
      "byteOffset": 3194184,
      "componentType": 5125,
      "count": 210906,
      "type": "SCALAR"
    },
    {
      "bufferView": 2,
      "byteOffset": 8158440,
      "componentType": 5126,
      "count": 65532,
      "max": [
        13.9805326461792,
        5.294917106628418,
        11.066974639892578
      ],
      "min": [
        -7.113515853881836,
        -7.425076007843018,
        0.5615653991699219
      ],
      "type": "VEC3"
    },
    {
      "bufferView": 2,
      "byteOffset": 8944824,
      "componentType": 5126,
      "count": 65532,
      "max": [
        0.9999904632568359,
        0.9999960064888,
        0.9999991655349731
      ],
      "min": [
        -0.9999880790710449,
        -0.9999990463256836,
        -0.9999667406082153
      ],
      "type": "VEC3"
    },
    {
      "bufferView": 1,
      "byteOffset": 2719480,
      "componentType": 5126,
      "count": 65532,
      "max": [
        1.9997349977493286,
        0.8552240133285522
      ],
      "min": [
        1.0002440214157104,
        0.00025499999173916876
      ],
      "type": "VEC2"
    },
    {
      "bufferView": 0,
      "byteOffset": 4037808,
      "componentType": 5125,
      "count": 187713,
      "type": "SCALAR"
    },
    {
      "bufferView": 2,
      "byteOffset": 9731208,
      "componentType": 5126,
      "count": 65532,
      "max": [
        14.43467903137207,
        5.246640682220459,
        11.603643417358398
      ],
      "min": [
        -7.793084144592285,
        -6.584877967834473,
        0.39346885681152344
      ],
      "type": "VEC3"
    },
    {
      "bufferView": 2,
      "byteOffset": 10517592,
      "componentType": 5126,
      "count": 65532,
      "max": [
        0.9999904632568359,
        0.9999971389770508,
        0.999998152256012
      ],
      "min": [
        -0.999996542930603,
        -0.9999998807907104,
        -0.9999828338623047
      ],
      "type": "VEC3"
    },
    {
      "bufferView": 1,
      "byteOffset": 3243736,
      "componentType": 5126,
      "count": 65532,
      "max": [
        1.99971604347229,
        0.8337399959564209
      ],
      "min": [
        1.0002440214157104,
        0.00025099999038502574
      ],
      "type": "VEC2"
    },
    {
      "bufferView": 0,
      "byteOffset": 4788660,
      "componentType": 5125,
      "count": 193464,
      "type": "SCALAR"
    },
    {
      "bufferView": 2,
      "byteOffset": 11303976,
      "componentType": 5126,
      "count": 43792,
      "max": [
        13.42818832397461,
        4.814408302307129,
        11.586685180664063
      ],
      "min": [
        -7.726957321166992,
        -5.2238264083862305,
        0.4171419143676758
      ],
      "type": "VEC3"
    },
    {
      "bufferView": 2,
      "byteOffset": 11829480,
      "componentType": 5126,
      "count": 43792,
      "max": [
        0.9999953508377075,
        0.9999990463256836,
        0.9999852776527405
      ],
      "min": [
        -0.999997615814209,
        -0.9999960660934448,
        -0.9999279975891113
      ],
      "type": "VEC3"
    },
    {
      "bufferView": 1,
      "byteOffset": 3767992,
      "componentType": 5126,
      "count": 43792,
      "max": [
        1.9997559785842896,
        0.8376460075378418
      ],
      "min": [
        1.0002440214157104,
        0.0002969999914057553
      ],
      "type": "VEC2"
    },
    {
      "bufferView": 0,
      "byteOffset": 5562516,
      "componentType": 5125,
      "count": 105393,
      "type": "SCALAR"
    }
  ],
  "asset": {
    "extras": {
      "author": "Okumino-93 (https://sketchfab.com/okumino)",
      "license": "CC-BY-4.0 (http://creativecommons.org/licenses/by/4.0/)",
      "source": "https://sketchfab.com/3d-models/combine-harvester-for-rice-3943b391ea9d49c29490ddd40db664b4",
      "title": "Combine harvester for rice"
    },
    "generator": "Sketchfab-14.38.0",
    "version": "2.0"
  },
  "bufferViews": [
    {
      "buffer": 0,
      "byteLength": 5984088,
      "name": "floatBufferViews",
      "target": 34963
    },
    {
      "buffer": 0,
      "byteLength": 4118328,
      "byteOffset": 5984088,
      "byteStride": 8,
      "name": "floatBufferViews",
      "target": 34962
    },
    {
      "buffer": 0,
      "byteLength": 12354984,
      "byteOffset": 10102416,
      "byteStride": 12,
      "name": "floatBufferViews",
      "target": 34962
    }
  ],
  "buffers": [
    {
      "byteLength": 22457400,
      "uri": "scene.bin"
    }
  ],
  "images": [
    {
      "uri": "textures/tex_u1_v1_baseColor.jpeg"
    },
    {
      "uri": "textures/tex_u2_v1_baseColor.jpeg"
    }
  ],
  "materials": [
    {
      "doubleSided": true,
      "name": "tex_u1_v1",
      "pbrMetallicRoughness": {
        "baseColorTexture": {
          "index": 0
        },
        "metallicFactor": 0.0
      }
    },
    {
      "doubleSided": true,
      "name": "tex_u2_v1",
      "pbrMetallicRoughness": {
        "baseColorTexture": {
          "index": 1
        },
        "metallicFactor": 0.0
      }
    }
  ],
  "meshes": [
    {
      "name": "Object_0",
      "primitives": [
        {
          "attributes": {
            "NORMAL": 1,
            "POSITION": 0,
            "TEXCOORD_0": 2
          },
          "indices": 3,
          "material": 0,
          "mode": 4
        }
      ]
    },
    {
      "name": "Object_1",
      "primitives": [
        {
          "attributes": {
            "NORMAL": 5,
            "POSITION": 4,
            "TEXCOORD_0": 6
          },
          "indices": 7,
          "material": 0,
          "mode": 4
        }
      ]
    },
    {
      "name": "Object_2",
      "primitives": [
        {
          "attributes": {
            "NORMAL": 9,
            "POSITION": 8,
            "TEXCOORD_0": 10
          },
          "indices": 11,
          "material": 0,
          "mode": 4
        }
      ]
    },
    {
      "name": "Object_3",
      "primitives": [
        {
          "attributes": {
            "NORMAL": 13,
            "POSITION": 12,
            "TEXCOORD_0": 14
          },
          "indices": 15,
          "material": 0,
          "mode": 4
        }
      ]
    },
    {
      "name": "Object_4",
      "primitives": [
        {
          "attributes": {
            "NORMAL": 17,
            "POSITION": 16,
            "TEXCOORD_0": 18
          },
          "indices": 19,
          "material": 0,
          "mode": 4
        }
      ]
    },
    {
      "name": "Object_5",
      "primitives": [
        {
          "attributes": {
            "NORMAL": 21,
            "POSITION": 20,
            "TEXCOORD_0": 22
          },
          "indices": 23,
          "material": 1,
          "mode": 4
        }
      ]
    },
    {
      "name": "Object_6",
      "primitives": [
        {
          "attributes": {
            "NORMAL": 25,
            "POSITION": 24,
            "TEXCOORD_0": 26
          },
          "indices": 27,
          "material": 1,
          "mode": 4
        }
      ]
    },
    {
      "name": "Object_7",
      "primitives": [
        {
          "attributes": {
            "NORMAL": 29,
            "POSITION": 28,
            "TEXCOORD_0": 30
          },
          "indices": 31,
          "material": 1,
          "mode": 4
        }
      ]
    },
    {
      "name": "Object_8",
      "primitives": [
        {
          "attributes": {
            "NORMAL": 33,
            "POSITION": 32,
            "TEXCOORD_0": 34
          },
          "indices": 35,
          "material": 1,
          "mode": 4
        }
      ]
    }
  ],
  "nodes": [
    {
      "children": [
        1
      ],
      "matrix": [
        1.0,
        0.0,
        0.0,
        0.0,
        0.0,
        2.220446049250313e-16,
        -1.0,
        0.0,
        0.0,
        1.0,
        2.220446049250313e-16,
        0.0,
        0.0,
        0.0,
        0.0,
        1.0
      ],
      "name": "Sketchfab_model"
    },
    {
      "children": [
        2,
        3,
        4,
        5,
        6,
        7,
        8,
        9,
        10
      ],
      "name": "model.obj.cleaner.materialmerger.gles"
    },
    {
      "mesh": 0,
      "name": "Object_2"
    },
    {
      "mesh": 1,
      "name": "Object_3"
    },
    {
      "mesh": 2,
      "name": "Object_4"
    },
    {
      "mesh": 3,
      "name": "Object_5"
    },
    {
      "mesh": 4,
      "name": "Object_6"
    },
    {
      "mesh": 5,
      "name": "Object_7"
    },
    {
      "mesh": 6,
      "name": "Object_8"
    },
    {
      "mesh": 7,
      "name": "Object_9"
    },
    {
      "mesh": 8,
      "name": "Object_10"
    }
  ],
  "samplers": [
    {
      "magFilter": 9729,
      "minFilter": 9987,
      "wrapS": 10497,
      "wrapT": 10497
    }
  ],
  "scene": 0,
  "scenes": [
    {
      "name": "Sketchfab_Scene",
      "nodes": [
        0
      ]
    }
  ],
  "textures": [
    {
      "sampler": 0,
      "source": 0
    },
    {
      "sampler": 0,
      "source": 1
    }
  ]
}
